# xmcd
#
# Track frame offsets: 
#        150
#        9647
#        26528
#        43107
#        51020
#        69746
#        80568
#        92856
#        101132
#        112417
#
# Disc length: 1708 seconds
#
# Revision: 2
# Processed by: cddbd v1.5.2PL0 Copyright (c) Steve Scherf et al.
# Submitted via: ExactAudioCopy v1.0b3
#
DISCID=8a06aa0a
DTITLE=Ralph Stanley and the Clinch Mountain Boys - Live At The Smiths
DTITLE=onian - The 2nd Show
DYEAR=2001
DGENRE=Bluegrass
TTITLE0=Lonesome Road Blues
TTITLE1=I'm a Man of Constant Sorrow
TTITLE2=Flem Jones
TTITLE3=Show Little Lulie
TTITLE4=Gloryland
TTITLE5=Cacklin' Hen
TTITLE6=Footprints in the Snow
TTITLE7=Hills of Home (Tribute to Carter)
TTITLE8=Going up Home (To Live in Green Pastures)
TTITLE9=I Only Exist
EXTD=with Rickey Lee and Roy Lee Centers
EXTT0=
EXTT1=
EXTT2=
EXTT3=
EXTT4=
EXTT5=
EXTT6=
EXTT7=
EXTT8=
EXTT9=
PLAYORDER=
